<svg xmlns="http://www.w3.org/2000/svg" version="1.1" xmlns:xlink="http://www.w3.org/1999/xlink" xmlns:svgjs="http://svgjs.dev/svgjs" width="1000" height="623" viewBox="0 0 1000 623"><g transform="matrix(1,0,0,1,-0.6060606060606233,0.2522267206477409)"><svg viewBox="0 0 396 247" data-background-color="#ffffff" preserveAspectRatio="xMidYMid meet" height="623" width="1000" xmlns="http://www.w3.org/2000/svg" xmlns:xlink="http://www.w3.org/1999/xlink"><g id="tight-bounds" transform="matrix(1,0,0,1,0.2400000000000091,-0.09999999999999432)"><svg viewBox="0 0 395.52 247.2" height="247.2" width="395.52"><g><svg></svg></g><g><svg viewBox="0 0 395.52 247.2" height="247.2" width="395.52"><mask id="c087d50f-62b1-466f-bdae-572786a3f1a3"><rect width="395.52" height="247.2" fill="white"></rect><g transform="matrix(1,0,0,1,130.81911504424778,37.08)" id="clone"><svg viewBox="0 0 133.8817699115044 173.04" height="173.04" width="133.8817699115044"><g><svg viewBox="0 0 133.8817699115044 173.04" height="173.04" width="133.8817699115044"><g><svg viewBox="0 0 133.8817699115044 173.04" height="173.04" width="133.8817699115044"><g><svg viewBox="0 0 133.8817699115044 173.04" height="173.04" width="133.8817699115044"><g id="SvgjsG1062"><svg viewBox="0 0 133.8817699115044 173.04" height="173.04" width="133.8817699115044" id="SvgjsSvg1061"><g><svg viewBox="0 0 133.8817699115044 173.04" height="173.04" width="133.8817699115044"><g transform="matrix(1,0,0,1,0,0)"><svg width="133.8817699115044" viewBox="-0.6000000000000001 -37.15 31.6 40.55" height="173.04" data-palette-color="#010c80"><path d="M28-5.95L28-1.7Q24.9 0.4 19.5 0.4L19.5 0.4Q11.9 0.4 7.15-4.28 2.4-8.95 2.4-17L2.4-17Q2.4-24.6 7.23-29.38 12.05-34.15 19.35-34.15L19.35-34.15Q24.6-34.15 27.9-32.35L27.9-32.35 27.9-28.2Q25.7-29.35 23.95-29.85 22.2-30.35 19.35-30.35L19.35-30.35Q13.9-30.35 10.28-26.65 6.65-22.95 6.65-17L6.65-17Q6.65-10.8 10.25-7.1 13.85-3.4 19.8-3.4L19.8-3.4Q24.6-3.4 28-5.95L28-5.95Z" opacity="1" transform="matrix(1,0,0,1,0,0)" fill="black" class="wordmark-text-0" id="SvgjsPath1060" stroke-width="5" stroke="black" stroke-linejoin="round"></path></svg></g></svg></g></svg></g></svg></g></svg></g></svg></g></svg></g></mask><g mask="url(#c087d50f-62b1-466f-bdae-572786a3f1a3)"><g><path d="M264.445 180.517v22.141c-10.767 7.294-25.528 10.94-44.283 10.941v0c-26.396 0-47.843-8.127-64.341-24.382-16.498-16.22-24.746-38.309-24.746-66.268v0c0-26.396 8.388-47.895 25.163-64.497 16.741-16.567 37.788-24.851 63.142-24.851v0c18.234 0 33.082 3.126 44.544 9.378v0 21.621c-7.641-3.994-14.5-6.86-20.579-8.597-6.078-1.737-14.066-2.605-23.965-2.604v0c-18.929 0-34.68 6.425-47.252 19.276-12.608 12.851-18.911 29.609-18.911 50.274v0c0 21.534 6.252 38.726 18.755 51.576 12.503 12.851 29.088 19.276 49.753 19.276v0c16.671 0 30.911-4.428 42.72-13.284z" fill="#010c80" fill-rule="nonzero" stroke="none" stroke-width="1" stroke-linecap="butt" stroke-linejoin="miter" stroke-miterlimit="10" stroke-dasharray="" stroke-dashoffset="0" font-family="none" font-weight="none" font-size="none" text-anchor="none" style="mix-blend-mode: normal" data-fill-palette-color="tertiary"></path></g></g><g transform="matrix(1,0,0,1,130.81911504424778,37.08)"><svg viewBox="0 0 133.8817699115044 173.04" height="173.04" width="133.8817699115044"><g><svg viewBox="0 0 133.8817699115044 173.04" height="173.04" width="133.8817699115044"><g><svg viewBox="0 0 133.8817699115044 173.04" height="173.04" width="133.8817699115044"><g><svg viewBox="0 0 133.8817699115044 173.04" height="173.04" width="133.8817699115044"><g id="textblocktransform"><svg viewBox="0 0 133.8817699115044 173.04" height="173.04" width="133.8817699115044" id="textblock"><g><svg viewBox="0 0 133.8817699115044 173.04" height="173.04" width="133.8817699115044"><g transform="matrix(1,0,0,1,0,0)"><svg width="133.8817699115044" viewBox="-0.6000000000000001 -37.15 31.6 40.55" height="173.04" data-palette-color="#010c80"><path d="M28-5.95L28-1.7Q24.9 0.4 19.5 0.4L19.5 0.4Q11.9 0.4 7.15-4.28 2.4-8.95 2.4-17L2.4-17Q2.4-24.6 7.23-29.38 12.05-34.15 19.35-34.15L19.35-34.15Q24.6-34.15 27.9-32.35L27.9-32.35 27.9-28.2Q25.7-29.35 23.95-29.85 22.2-30.35 19.35-30.35L19.35-30.35Q13.9-30.35 10.28-26.65 6.65-22.95 6.65-17L6.65-17Q6.65-10.8 10.25-7.1 13.85-3.4 19.8-3.4L19.8-3.4Q24.6-3.4 28-5.95L28-5.95Z" opacity="1" transform="matrix(1,0,0,1,0,0)" fill="#010c80" class="wordmark-text-0" data-fill-palette-color="primary" id="text-0"></path></svg></g></svg></g></svg></g></svg></g></svg></g></svg></g></svg></g></svg></g><defs></defs></svg><rect width="395.52" height="247.2" fill="none" stroke="none" visibility="hidden"></rect></g></svg></g></svg>